<svg width="435" height="40" viewBox="0 0 435 40" fill="none" xmlns="http://www.w3.org/2000/svg">
<path d="M40.176 5.73578L34.608 38.9998H24.384L20.256 13.6078L15.888 38.9998H5.90401L0.432007 5.73578H8.30401L11.616 33.0478L16.224 5.73578H24.48L28.8 33.0478L32.688 5.73578H40.176Z" fill="#141414"/>
<path d="M65.3719 25.7518C65.3719 26.8078 65.3239 27.7198 65.2279 28.4878H49.4359C49.6919 30.6318 50.2999 32.1358 51.2599 32.9998C52.2199 33.8638 53.5479 34.2958 55.2439 34.2958C56.2679 34.2958 57.2599 34.1198 58.2199 33.7678C59.1799 33.3838 60.2199 32.8078 61.3399 32.0398L64.4599 36.2638C61.4839 38.6318 58.1719 39.8158 54.5239 39.8158C50.3959 39.8158 47.2279 38.5998 45.0199 36.1678C42.8119 33.7358 41.7079 30.4718 41.7079 26.3758C41.7079 23.7838 42.1719 21.4638 43.0999 19.4158C44.0279 17.3358 45.3879 15.7038 47.1799 14.5198C48.9719 13.3038 51.1159 12.6958 53.6119 12.6958C57.2919 12.6958 60.1719 13.8478 62.2519 16.1518C64.3319 18.4558 65.3719 21.6558 65.3719 25.7518ZM57.9319 23.5918C57.8679 19.6878 56.4919 17.7358 53.8039 17.7358C52.4919 17.7358 51.4679 18.2158 50.7319 19.1758C50.0279 20.1358 49.5959 21.7198 49.4359 23.9278H57.9319V23.5918Z" fill="#141414"/>
<path d="M76.4003 39.8158C74.1923 39.8158 72.4643 39.1918 71.2163 37.9438C70.0003 36.6638 69.3923 34.8558 69.3923 32.5198V3.38378L76.9763 2.56778V32.2318C76.9763 33.2878 77.4083 33.8158 78.2723 33.8158C78.7203 33.8158 79.1363 33.7358 79.5203 33.5758L81.0083 38.9518C79.6323 39.5278 78.0963 39.8158 76.4003 39.8158Z" fill="#141414"/>
<path d="M90.6503 39.8158C88.4423 39.8158 86.7143 39.1918 85.4663 37.9438C84.2503 36.6638 83.6423 34.8558 83.6423 32.5198V3.38378L91.2263 2.56778V32.2318C91.2263 33.2878 91.6583 33.8158 92.5223 33.8158C92.9703 33.8158 93.3863 33.7358 93.7703 33.5758L95.2583 38.9518C93.8823 39.5278 92.3463 39.8158 90.6503 39.8158Z" fill="#141414"/>
<path d="M105.716 13.5118V38.9998H98.1323V13.5118H105.716ZM101.876 0.0717773C103.188 0.0717773 104.26 0.487778 105.092 1.31978C105.956 2.11978 106.388 3.14378 106.388 4.39178C106.388 5.63978 105.956 6.67978 105.092 7.51178C104.26 8.31178 103.188 8.71178 101.876 8.71178C100.564 8.71178 99.4923 8.31178 98.6603 7.51178C97.8283 6.67978 97.4123 5.63978 97.4123 4.39178C97.4123 3.14378 97.8283 2.11978 98.6603 1.31978C99.4923 0.487778 100.564 0.0717773 101.876 0.0717773Z" fill="#141414"/>
<path d="M120.655 12.6958C122.479 12.6958 124.191 12.9678 125.791 13.5118C127.391 14.0558 128.799 14.8238 130.015 15.8158L127.231 20.0878C125.151 18.7758 123.055 18.1198 120.943 18.1198C119.951 18.1198 119.183 18.2958 118.639 18.6478C118.127 18.9678 117.871 19.4318 117.871 20.0398C117.871 20.5198 117.983 20.9198 118.207 21.2398C118.463 21.5278 118.959 21.8318 119.695 22.1518C120.431 22.4718 121.567 22.8558 123.103 23.3038C125.759 24.0718 127.727 25.0798 129.007 26.3278C130.319 27.5438 130.975 29.2398 130.975 31.4158C130.975 33.1438 130.479 34.6478 129.487 35.9278C128.495 37.1758 127.135 38.1358 125.407 38.8078C123.679 39.4798 121.759 39.8158 119.647 39.8158C117.503 39.8158 115.503 39.4798 113.647 38.8078C111.823 38.1358 110.271 37.2078 108.991 36.0238L112.687 31.8958C114.831 33.5598 117.087 34.3918 119.455 34.3918C120.607 34.3918 121.503 34.1838 122.143 33.7678C122.815 33.3518 123.151 32.7598 123.151 31.9918C123.151 31.3838 123.023 30.9038 122.767 30.5518C122.511 30.1998 122.015 29.8798 121.279 29.5918C120.543 29.2718 119.375 28.8878 117.775 28.4398C115.247 27.7038 113.359 26.6798 112.111 25.3678C110.863 24.0558 110.239 22.4238 110.239 20.4718C110.239 18.9998 110.655 17.6878 111.487 16.5358C112.351 15.3518 113.567 14.4238 115.135 13.7518C116.735 13.0478 118.575 12.6958 120.655 12.6958Z" fill="#141414"/>
<path d="M145.922 12.6958C149.826 12.6958 152.882 13.8958 155.09 16.2958C157.298 18.6638 158.402 21.9918 158.402 26.2798C158.402 28.9998 157.89 31.3838 156.866 33.4318C155.874 35.4478 154.434 37.0158 152.546 38.1358C150.69 39.2558 148.482 39.8158 145.922 39.8158C142.05 39.8158 138.994 38.6318 136.754 36.2638C134.546 33.8638 133.442 30.5198 133.442 26.2318C133.442 23.5118 133.938 21.1438 134.93 19.1278C135.954 17.0798 137.394 15.4958 139.25 14.3758C141.138 13.2558 143.362 12.6958 145.922 12.6958ZM145.922 18.2638C144.386 18.2638 143.234 18.9198 142.466 20.2318C141.698 21.5118 141.314 23.5118 141.314 26.2318C141.314 29.0158 141.682 31.0478 142.418 32.3278C143.186 33.6078 144.354 34.2478 145.922 34.2478C147.458 34.2478 148.61 33.6078 149.378 32.3278C150.146 31.0158 150.53 28.9998 150.53 26.2798C150.53 23.4958 150.146 21.4638 149.378 20.1838C148.642 18.9038 147.49 18.2638 145.922 18.2638Z" fill="#141414"/>
<path d="M177.842 12.6958C180.05 12.6958 181.778 13.3678 183.026 14.7118C184.274 16.0558 184.898 17.9438 184.898 20.3758V38.9998H177.314V21.6718C177.314 20.3918 177.106 19.5118 176.69 19.0318C176.306 18.5198 175.714 18.2638 174.914 18.2638C173.378 18.2638 171.906 19.3678 170.498 21.5758V38.9998H162.914V13.5118H169.538L170.066 16.5358C171.154 15.2558 172.322 14.2958 173.57 13.6558C174.85 13.0158 176.274 12.6958 177.842 12.6958Z" fill="#141414"/>
<path d="M215.735 4.91978C217.815 4.91978 219.655 5.22378 221.255 5.83178C222.887 6.43978 224.423 7.35178 225.863 8.56778L222.119 13.0318C221.127 12.2638 220.151 11.6878 219.191 11.3038C218.231 10.9198 217.207 10.7278 216.119 10.7278C213.879 10.7278 212.103 11.6718 210.791 13.5598C209.511 15.4478 208.871 18.3598 208.871 22.2958C208.871 26.1678 209.511 29.0478 210.791 30.9358C212.103 32.7918 213.911 33.7198 216.215 33.7198C217.431 33.7198 218.535 33.4958 219.527 33.0478C220.519 32.5678 221.591 31.8958 222.743 31.0318L226.247 35.5438C224.999 36.7918 223.479 37.8158 221.687 38.6158C219.927 39.4158 217.975 39.8158 215.831 39.8158C212.759 39.8158 210.087 39.1438 207.815 37.7998C205.543 36.4558 203.767 34.4718 202.487 31.8478C201.239 29.1918 200.615 26.0078 200.615 22.2958C200.615 18.6798 201.255 15.5598 202.535 12.9358C203.847 10.3118 205.639 8.32778 207.911 6.98378C210.215 5.60778 212.823 4.91978 215.735 4.91978Z" fill="#141414"/>
<path d="M249.404 31.6078C249.404 32.5678 249.532 33.2718 249.788 33.7198C250.076 34.1678 250.524 34.5038 251.132 34.7278L249.548 39.6718C247.98 39.5438 246.7 39.2078 245.708 38.6638C244.716 38.0878 243.948 37.1918 243.404 35.9758C241.74 38.5358 239.18 39.8158 235.724 39.8158C233.196 39.8158 231.18 39.0798 229.676 37.6078C228.172 36.1358 227.42 34.2158 227.42 31.8478C227.42 29.0638 228.444 26.9358 230.492 25.4638C232.54 23.9918 235.5 23.2558 239.372 23.2558H241.964V22.1518C241.964 20.6478 241.644 19.6238 241.004 19.0798C240.364 18.5038 239.244 18.2158 237.644 18.2158C236.812 18.2158 235.804 18.3438 234.62 18.5998C233.436 18.8238 232.22 19.1438 230.972 19.5598L229.244 14.5678C230.844 13.9598 232.476 13.4958 234.14 13.1758C235.836 12.8558 237.404 12.6958 238.844 12.6958C242.492 12.6958 245.164 13.4478 246.86 14.9518C248.556 16.4558 249.404 18.7118 249.404 21.7198V31.6078ZM237.932 34.3918C239.66 34.3918 241.004 33.5758 241.964 31.9438V27.4318H240.092C238.364 27.4318 237.068 27.7358 236.204 28.3438C235.372 28.9518 234.956 29.8958 234.956 31.1758C234.956 32.1998 235.212 32.9998 235.724 33.5758C236.268 34.1198 237.004 34.3918 237.932 34.3918Z" fill="#141414"/>
<path d="M276.678 13.5118L268.662 38.9998H259.686L251.478 13.5118H259.734L264.246 33.2398L268.95 13.5118H276.678Z" fill="#141414"/>
<path d="M298.529 31.6078C298.529 32.5678 298.657 33.2718 298.913 33.7198C299.201 34.1678 299.649 34.5038 300.257 34.7278L298.673 39.6718C297.105 39.5438 295.825 39.2078 294.833 38.6638C293.841 38.0878 293.073 37.1918 292.529 35.9758C290.865 38.5358 288.305 39.8158 284.849 39.8158C282.321 39.8158 280.305 39.0798 278.801 37.6078C277.297 36.1358 276.545 34.2158 276.545 31.8478C276.545 29.0638 277.569 26.9358 279.617 25.4638C281.665 23.9918 284.625 23.2558 288.497 23.2558H291.089V22.1518C291.089 20.6478 290.769 19.6238 290.129 19.0798C289.489 18.5038 288.369 18.2158 286.769 18.2158C285.937 18.2158 284.929 18.3438 283.745 18.5998C282.561 18.8238 281.345 19.1438 280.097 19.5598L278.369 14.5678C279.969 13.9598 281.601 13.4958 283.265 13.1758C284.961 12.8558 286.529 12.6958 287.969 12.6958C291.617 12.6958 294.289 13.4478 295.985 14.9518C297.681 16.4558 298.529 18.7118 298.529 21.7198V31.6078ZM287.057 34.3918C288.785 34.3918 290.129 33.5758 291.089 31.9438V27.4318H289.217C287.489 27.4318 286.193 27.7358 285.329 28.3438C284.497 28.9518 284.081 29.8958 284.081 31.1758C284.081 32.1998 284.337 32.9998 284.849 33.5758C285.393 34.1198 286.129 34.3918 287.057 34.3918Z" fill="#141414"/>
<path d="M310.869 39.8158C308.661 39.8158 306.933 39.1918 305.685 37.9438C304.469 36.6638 303.861 34.8558 303.861 32.5198V3.38378L311.445 2.56778V32.2318C311.445 33.2878 311.877 33.8158 312.741 33.8158C313.189 33.8158 313.605 33.7358 313.989 33.5758L315.477 38.9518C314.101 39.5278 312.565 39.8158 310.869 39.8158Z" fill="#141414"/>
<path d="M329.157 12.6958C330.917 12.6958 332.501 12.9518 333.909 13.4638C335.317 13.9758 336.645 14.7598 337.893 15.8158L334.629 20.3278C333.029 19.1118 331.413 18.5038 329.781 18.5038C328.085 18.5038 326.805 19.1278 325.941 20.3758C325.077 21.6238 324.645 23.6398 324.645 26.4238C324.645 29.1118 325.077 31.0158 325.941 32.1358C326.805 33.2558 328.053 33.8158 329.685 33.8158C330.549 33.8158 331.333 33.6878 332.037 33.4318C332.741 33.1438 333.589 32.6958 334.581 32.0878L337.893 36.7918C335.365 38.8078 332.501 39.8158 329.301 39.8158C326.709 39.8158 324.469 39.2718 322.581 38.1838C320.693 37.0638 319.237 35.5118 318.213 33.5278C317.189 31.5118 316.677 29.1598 316.677 26.4718C316.677 23.7838 317.189 21.3998 318.213 19.3198C319.237 17.2398 320.693 15.6238 322.581 14.4718C324.469 13.2878 326.661 12.6958 329.157 12.6958Z" fill="#141414"/>
<path d="M360.873 31.6078C360.873 32.5678 361.001 33.2718 361.257 33.7198C361.545 34.1678 361.993 34.5038 362.601 34.7278L361.017 39.6718C359.449 39.5438 358.169 39.2078 357.177 38.6638C356.185 38.0878 355.417 37.1918 354.873 35.9758C353.209 38.5358 350.649 39.8158 347.193 39.8158C344.665 39.8158 342.649 39.0798 341.145 37.6078C339.641 36.1358 338.889 34.2158 338.889 31.8478C338.889 29.0638 339.913 26.9358 341.961 25.4638C344.009 23.9918 346.969 23.2558 350.841 23.2558H353.433V22.1518C353.433 20.6478 353.113 19.6238 352.473 19.0798C351.833 18.5038 350.713 18.2158 349.113 18.2158C348.281 18.2158 347.273 18.3438 346.089 18.5998C344.905 18.8238 343.689 19.1438 342.441 19.5598L340.713 14.5678C342.313 13.9598 343.945 13.4958 345.609 13.1758C347.305 12.8558 348.873 12.6958 350.313 12.6958C353.961 12.6958 356.633 13.4478 358.329 14.9518C360.025 16.4558 360.873 18.7118 360.873 21.7198V31.6078ZM349.401 34.3918C351.129 34.3918 352.473 33.5758 353.433 31.9438V27.4318H351.561C349.833 27.4318 348.537 27.7358 347.673 28.3438C346.841 28.9518 346.425 29.8958 346.425 31.1758C346.425 32.1998 346.681 32.9998 347.193 33.5758C347.737 34.1198 348.473 34.3918 349.401 34.3918Z" fill="#141414"/>
<path d="M381.842 12.6958C384.05 12.6958 385.778 13.3678 387.026 14.7118C388.274 16.0558 388.898 17.9438 388.898 20.3758V38.9998H381.314V21.6718C381.314 20.3918 381.106 19.5118 380.69 19.0318C380.306 18.5198 379.714 18.2638 378.914 18.2638C377.378 18.2638 375.905 19.3678 374.497 21.5758V38.9998H366.914V13.5118H373.538L374.066 16.5358C375.154 15.2558 376.322 14.2958 377.57 13.6558C378.85 13.0158 380.274 12.6958 381.842 12.6958Z" fill="#141414"/>
<path d="M410.601 37.7998C409.673 38.4398 408.585 38.9358 407.337 39.2878C406.121 39.6398 404.905 39.8158 403.689 39.8158C398.121 39.7838 395.337 36.7118 395.337 30.5998V18.7918H391.737V13.5118H395.337V7.99178L402.921 7.12778V13.5118H408.777L407.961 18.7918H402.921V30.5038C402.921 31.6878 403.113 32.5358 403.497 33.0478C403.881 33.5598 404.489 33.8158 405.321 33.8158C406.185 33.8158 407.097 33.5438 408.057 32.9998L410.601 37.7998Z" fill="#141414"/>
<path d="M434.513 25.7518C434.513 26.8078 434.465 27.7198 434.368 28.4878H418.577C418.833 30.6318 419.441 32.1358 420.401 32.9998C421.361 33.8638 422.689 34.2958 424.385 34.2958C425.409 34.2958 426.401 34.1198 427.361 33.7678C428.321 33.3838 429.36 32.8078 430.48 32.0398L433.6 36.2638C430.624 38.6318 427.313 39.8158 423.665 39.8158C419.537 39.8158 416.368 38.5998 414.16 36.1678C411.952 33.7358 410.849 30.4718 410.849 26.3758C410.849 23.7838 411.313 21.4638 412.241 19.4158C413.169 17.3358 414.528 15.7038 416.32 14.5198C418.112 13.3038 420.257 12.6958 422.753 12.6958C426.433 12.6958 429.313 13.8478 431.393 16.1518C433.473 18.4558 434.513 21.6558 434.513 25.7518ZM427.073 23.5918C427.009 19.6878 425.633 17.7358 422.945 17.7358C421.633 17.7358 420.608 18.2158 419.872 19.1758C419.168 20.1358 418.737 21.7198 418.577 23.9278H427.073V23.5918Z" fill="#141414"/>
</svg>
